<svg width="30" height="24" viewBox="0 0 30 24" fill="none" xmlns="http://www.w3.org/2000/svg">
<path d="M28.1475 3.18905C28.7167 4.66184 27.9185 5.67017 26.3735 6.66343C25.1269 7.46484 23.5386 8.33304 21.8557 9.81737C20.2059 11.2724 18.5958 13.025 17.165 14.75C15.7399 16.468 14.5287 18.1147 13.6729 19.334C13.1198 20.1219 12.3481 21.2972 12.3481 21.2972C11.8038 22.1583 10.8253 22.6795 9.77616 22.6664C8.72675 22.6534 7.76285 22.1083 7.24216 21.2335C5.91112 18.9974 4.88403 18.1143 4.41196 17.7971C3.14885 16.9483 1.66675 16.8228 1.66675 14.8447C1.66675 13.2739 2.99327 12.0004 4.62963 12.0004C5.78491 12.0431 6.85872 12.4974 7.81016 13.1368C8.41833 13.5455 9.0626 14.086 9.73272 14.7975C10.5192 13.7248 11.467 12.4871 12.5294 11.2063C14.0723 9.34631 15.8935 7.35083 17.8466 5.62825C19.7665 3.93491 21.9862 2.34984 24.339 1.51179C25.8733 0.965334 27.5783 1.71628 28.1475 3.18905Z" stroke="#333333" stroke-width="1.5" stroke-linecap="round" stroke-linejoin="round"/>
</svg>
